<mxfile host="Electron" agent="Mozilla/5.0 (Windows NT 10.0; Win64; x64) AppleWebKit/537.36 (KHTML, like Gecko) draw.io/24.7.8 Chrome/128.0.6613.36 Electron/32.0.1 Safari/537.36" border="50" scale="3" compressed="false" locked="false" version="24.7.8">
  <diagram name="Blank" id="YmL12bMKpDGza6XwsDPr">
    <mxGraphModel dx="1843" dy="2136" grid="1" gridSize="10" guides="1" tooltips="1" connect="1" arrows="1" fold="1" page="0" pageScale="1" pageWidth="827" pageHeight="1169" background="none" math="1" shadow="0">
      <root>
        <mxCell id="X5NqExCQtvZxIxQ7pmgY-0" />
        <mxCell id="1" parent="X5NqExCQtvZxIxQ7pmgY-0" />
        <mxCell id="-RFB2ZjuNuW418ZSIsC1-4" value="COORDENAR A EXTRAÇÃO DE DADOS DE FORMA SEQUENCIAL" style="shape=note;whiteSpace=wrap;html=1;backgroundOutline=1;fontColor=#000000;darkOpacity=0.05;fillColor=#FFF9B2;strokeColor=none;fillStyle=solid;direction=west;gradientDirection=north;gradientColor=#FFF2A1;shadow=1;size=20;pointerEvents=1;" vertex="1" parent="1">
          <mxGeometry x="280" y="-110" width="140" height="160" as="geometry" />
        </mxCell>
        <mxCell id="-RFB2ZjuNuW418ZSIsC1-19" style="edgeStyle=orthogonalEdgeStyle;rounded=0;orthogonalLoop=1;jettySize=auto;html=1;exitX=0.5;exitY=1;exitDx=0;exitDy=0;exitPerimeter=0;" edge="1" parent="1" source="-RFB2ZjuNuW418ZSIsC1-6" target="-RFB2ZjuNuW418ZSIsC1-18">
          <mxGeometry relative="1" as="geometry" />
        </mxCell>
        <mxCell id="-RFB2ZjuNuW418ZSIsC1-6" value="MODIFICAR STRINGS DENTRO DO CÓDIGO FONTE DE UM ARQUIVO" style="shape=note;whiteSpace=wrap;html=1;backgroundOutline=1;fontColor=#000000;darkOpacity=0.05;fillColor=#FFF9B2;strokeColor=none;fillStyle=solid;direction=west;gradientDirection=north;gradientColor=#FFF2A1;shadow=1;size=20;pointerEvents=1;" vertex="1" parent="1">
          <mxGeometry x="520" y="-320" width="140" height="160" as="geometry" />
        </mxCell>
        <mxCell id="-RFB2ZjuNuW418ZSIsC1-14" style="edgeStyle=orthogonalEdgeStyle;rounded=0;orthogonalLoop=1;jettySize=auto;html=1;exitX=0.5;exitY=1;exitDx=0;exitDy=0;exitPerimeter=0;" edge="1" parent="1" source="-RFB2ZjuNuW418ZSIsC1-9" target="-RFB2ZjuNuW418ZSIsC1-10">
          <mxGeometry relative="1" as="geometry" />
        </mxCell>
        <mxCell id="-RFB2ZjuNuW418ZSIsC1-9" value="PROCURAR PELA STRING DENTRO DO ARQUIVO DE TEXTO" style="shape=note;whiteSpace=wrap;html=1;backgroundOutline=1;fontColor=#000000;darkOpacity=0.05;fillColor=#FFF9B2;strokeColor=none;fillStyle=solid;direction=west;gradientDirection=north;gradientColor=#FFF2A1;shadow=1;size=20;pointerEvents=1;" vertex="1" parent="1">
          <mxGeometry x="740" y="-520" width="140" height="160" as="geometry" />
        </mxCell>
        <mxCell id="-RFB2ZjuNuW418ZSIsC1-15" style="edgeStyle=orthogonalEdgeStyle;rounded=0;orthogonalLoop=1;jettySize=auto;html=1;exitX=0;exitY=0.5;exitDx=0;exitDy=0;exitPerimeter=0;" edge="1" parent="1" source="-RFB2ZjuNuW418ZSIsC1-10" target="-RFB2ZjuNuW418ZSIsC1-11">
          <mxGeometry relative="1" as="geometry" />
        </mxCell>
        <mxCell id="-RFB2ZjuNuW418ZSIsC1-10" value="ESCREVER" style="shape=note;whiteSpace=wrap;html=1;backgroundOutline=1;fontColor=#000000;darkOpacity=0.05;fillColor=#FFF9B2;strokeColor=none;fillStyle=solid;direction=west;gradientDirection=north;gradientColor=#FFF2A1;shadow=1;size=20;pointerEvents=1;" vertex="1" parent="1">
          <mxGeometry x="320" y="-780" width="140" height="160" as="geometry" />
        </mxCell>
        <mxCell id="-RFB2ZjuNuW418ZSIsC1-11" value="SALVAR A MODIFICAÇÃO" style="shape=note;whiteSpace=wrap;html=1;backgroundOutline=1;fontColor=#000000;darkOpacity=0.05;fillColor=#FFF9B2;strokeColor=none;fillStyle=solid;direction=west;gradientDirection=north;gradientColor=#FFF2A1;shadow=1;size=20;pointerEvents=1;" vertex="1" parent="1">
          <mxGeometry x="580" y="-940" width="140" height="160" as="geometry" />
        </mxCell>
        <mxCell id="-RFB2ZjuNuW418ZSIsC1-16" style="edgeStyle=orthogonalEdgeStyle;rounded=0;orthogonalLoop=1;jettySize=auto;html=1;exitX=0.5;exitY=1;exitDx=0;exitDy=0;exitPerimeter=0;entryX=0;entryY=0;entryDx=140;entryDy=90;entryPerimeter=0;" edge="1" parent="1" source="-RFB2ZjuNuW418ZSIsC1-4" target="-RFB2ZjuNuW418ZSIsC1-6">
          <mxGeometry relative="1" as="geometry" />
        </mxCell>
        <mxCell id="-RFB2ZjuNuW418ZSIsC1-17" style="edgeStyle=orthogonalEdgeStyle;rounded=0;orthogonalLoop=1;jettySize=auto;html=1;entryX=0;entryY=0;entryDx=140;entryDy=90;entryPerimeter=0;" edge="1" parent="1" source="-RFB2ZjuNuW418ZSIsC1-18" target="-RFB2ZjuNuW418ZSIsC1-9">
          <mxGeometry relative="1" as="geometry" />
        </mxCell>
        <mxCell id="-RFB2ZjuNuW418ZSIsC1-18" value="RECEBER UMA STRING QUE É VALOR MODIFICADO" style="shape=note;whiteSpace=wrap;html=1;backgroundOutline=1;fontColor=#000000;darkOpacity=0.05;fillColor=#FFF9B2;strokeColor=none;fillStyle=solid;direction=west;gradientDirection=north;gradientColor=#FFF2A1;shadow=1;size=20;pointerEvents=1;" vertex="1" parent="1">
          <mxGeometry x="310" y="-540" width="140" height="160" as="geometry" />
        </mxCell>
        <mxCell id="-RFB2ZjuNuW418ZSIsC1-22" value="RODAR OS PROGRAMAS DE FORMA SEQUENCIAL" style="shape=note;whiteSpace=wrap;html=1;backgroundOutline=1;fontColor=#000000;darkOpacity=0.05;fillColor=#FFF9B2;strokeColor=none;fillStyle=solid;direction=west;gradientDirection=north;gradientColor=#FFF2A1;shadow=1;size=20;pointerEvents=1;" vertex="1" parent="1">
          <mxGeometry x="500" y="30" width="140" height="160" as="geometry" />
        </mxCell>
        <mxCell id="-RFB2ZjuNuW418ZSIsC1-23" style="edgeStyle=orthogonalEdgeStyle;rounded=0;orthogonalLoop=1;jettySize=auto;html=1;entryX=0.5;entryY=1;entryDx=0;entryDy=0;entryPerimeter=0;" edge="1" parent="1" source="-RFB2ZjuNuW418ZSIsC1-4" target="-RFB2ZjuNuW418ZSIsC1-22">
          <mxGeometry relative="1" as="geometry" />
        </mxCell>
        <mxCell id="-RFB2ZjuNuW418ZSIsC1-24" value="ESTRATÉGIA DE LANÇAMENTO EM GRUPO" style="shape=note;whiteSpace=wrap;html=1;backgroundOutline=1;fontColor=#000000;darkOpacity=0.05;fillColor=#FFF9B2;strokeColor=none;fillStyle=solid;direction=west;gradientDirection=north;gradientColor=#FFF2A1;shadow=1;size=20;pointerEvents=1;" vertex="1" parent="1">
          <mxGeometry x="760" y="-160" width="140" height="160" as="geometry" />
        </mxCell>
        <mxCell id="-RFB2ZjuNuW418ZSIsC1-25" style="edgeStyle=orthogonalEdgeStyle;rounded=0;orthogonalLoop=1;jettySize=auto;html=1;exitX=0;exitY=0.5;exitDx=0;exitDy=0;exitPerimeter=0;entryX=0;entryY=0;entryDx=140;entryDy=90;entryPerimeter=0;" edge="1" parent="1" source="-RFB2ZjuNuW418ZSIsC1-22" target="-RFB2ZjuNuW418ZSIsC1-24">
          <mxGeometry relative="1" as="geometry" />
        </mxCell>
      </root>
    </mxGraphModel>
  </diagram>
</mxfile>
